# xmcd CD database file
#
# Track frame offsets:
#	150
#	10275
#	24905
#	42105
#	60227
#	79802
#	95062
#	111770
#	124437
#	144350
#	162590
#	174912
#	212787
#	227257
#	247357
#	261600
#	274932
#	293330
#
# Disc length: 4280 seconds
#
# Revision: 2
# Processed by: cddbd v1.5.1PL0 Copyright (c) Steve Scherf et al.
# Submitted via: CDex 1.51
#
DISCID=fd10b612
DTITLE=Kasbek - Klezmer a la russe
DYEAR=2000
DGENRE=Jazz
TTITLE0=Zilberne Khasene
TTITLE1=In Odess
TTITLE2=Kasbek
TTITLE3=Oy piydu ya
TTITLE4=Heyser bulgar
TTITLE5=Tshubtshik
TTITLE6=Kishinever bulgar - Shtiler bulgar
TTITLE7=S'is fintzer in mayn gesale
TTITLE8=Bulgar no4 - Malkele
TTITLE9=Khosn un kaleh
TTITLE10=Djankoye
TTITLE11=Doyna - Kandels hora - Odessa bulgar
TTITLE12=Di mezinke oysgegebn
TTITLE13=Papirosn - Kupite papirosy
TTITLE14=Eti tshorniye glaza
TTITLE15=Lebedik - freylekh
TTITLE16=Russian sher
TTITLE17=Kolomayer badkhen - Lebedik un freylekh
EXTD=YEAR: 2000
EXTT0=
EXTT1=
EXTT2=
EXTT3=
EXTT4=
EXTT5=
EXTT6=
EXTT7=
EXTT8=
EXTT9=
EXTT10=
EXTT11=
EXTT12=
EXTT13=
EXTT14=
EXTT15=
EXTT16=
EXTT17=
PLAYORDER=
